<svg id="Layer_1" enable-background="new 0 0 480.024 480.024" height="512" viewBox="0 0 480.024 480.024" width="512" xmlns="http://www.w3.org/2000/svg"><path d="m462.06 462.082c-13.26 13.25-34.76 13.25-48.02 0l-106.37-106.37c-30.93 21.59-68.43 34.31-108.67 34.31-104.78 0-191-86.22-191-191 0-105.49 85.51-191 191-191 104.78 0 191 86.22 191 191 0 40.26-12.73 77.79-34.36 108.73.59.419 105.908 105.798 106.42 106.31 13.236 13.256 13.27 34.73 0 48.02z" fill="#d6f4fc"/><path d="m431.26 383.262-48.02 48.02-75.57-75.57c18.66-13.04 34.94-29.3 47.97-47.96.59.42 75.108 74.998 75.62 75.51z" fill="#42434d"/><path d="m207.526 62.092c-70.253 17.059-128.328 75.027-145.462 145.253-7.637 31.3-53.725 25.844-54.054-6.373-1.094-107.089 86.065-194.153 193.155-192.938 32.224.366 37.677 46.454 6.361 54.058z" fill="#e8f8fc"/><path d="m290.82 172.192c21.673 75.368-50.742 143.73-124.54 118.09-37.77-13.12-64.87-49.02-64.87-91.26 0-53.332 43.235-96.59 96.59-96.59 43.995 0 81.175 29.43 92.82 69.76z" fill="#fe4f60"/><circle cx="225.64" cy="213.132" fill="#e84857" r="23.89"/><path d="m179.345 104.222c29.26-5.654 42.586 34.995 15.861 48.181-19.467 9.605-34.77 25.426-43.924 44.031-13.119 26.667-53.788 12.962-48.05-16.198 7.241-36.797 36.297-68.321 76.113-76.014z" fill="#ff6d7a"/><path d="m160.79 199.102c0 6.02-4.9 10.92-10.92 10.92-6.03 0-10.93-4.9-10.93-10.92s4.9-10.92 10.93-10.92c6.02 0 10.92 4.9 10.92 10.92z" fill="#e84857"/><path d="m377.43 329.432c-.5 1-17.681 26.835-48.01 48.03l-21.75-21.75c18.66-13.04 34.94-29.3 47.97-47.96.59.419 21.276 21.166 21.79 21.68z" fill="#2c2c33"/><path d="m438.047 480.002c-10.743 0-21.486-4.089-29.665-12.267l-74.548-74.547c-3.124-3.125-3.124-8.189 0-11.314 3.125-3.123 8.189-3.123 11.314 0l74.547 74.547c10.118 10.117 26.584 10.119 36.704 0 10.118-10.119 10.118-26.584-.001-36.704l-25.139-25.139-12.852 12.852c-3.126 3.124-8.189 3.123-11.314 0-3.124-3.125-3.124-8.189 0-11.314l12.852-12.852-63.09-63.089c-37.591 48.907-95.898 77.849-157.855 77.849-109.729 0-199-89.271-199-199s89.271-199 199-199c133.16 0 229.714 129.342 190.222 257.624-1.299 4.223-5.779 6.595-9.999 5.292-4.223-1.3-6.593-5.776-5.292-9.999 36.237-117.73-52.259-236.919-174.931-236.919-100.907 0-183 82.094-183 183s82.093 183 183 183c59.895 0 116.099-29.397 150.347-78.64 2.476-3.56 7.323-4.479 10.928-2.128 1.239.808-6.474-6.764 107.438 107.148 26.377 26.381 7.532 71.6-29.666 71.6zm-106.336-319.11c-1.177-4.26-5.586-6.758-9.841-5.581l-25.835 7.137c-3.571-9.563-8.558-18.616-14.916-26.927-2.684-3.509-7.703-4.178-11.215-1.492-3.509 2.685-4.177 7.705-1.492 11.215 7.246 9.471 11.642 18.829 14.754 29.232 18.728 65.269-40.243 126.995-106.584 110.525l6.135-17.649c1.451-4.174-.756-8.732-4.93-10.184-4.173-1.449-8.733.756-10.184 4.93l-15.591 44.851c-1.804 5.19 2.054 10.629 7.557 10.629 3.311 0 6.408-2.071 7.556-5.375l4.184-12.037c35.014 9.221 73.485-.081 100.628-27.232l11.762 10.081c3.357 2.876 8.406 2.485 11.28-.868 2.875-3.354 2.486-8.405-.868-11.28l-11.759-10.078c17.908-24.391 23.928-54.528 18.109-82.965l25.667-7.09c4.261-1.177 6.76-5.583 5.583-9.842zm-237.652 113.211c3.102 0 3.032-.442 20.631-11.798 7.092 9.323 15.804 17.522 25.912 24.169 3.691 2.427 8.652 1.404 11.08-2.289 2.428-3.691 1.403-8.652-2.289-11.08-41.456-27.261-52.094-82.685-25.297-122.961l24.173 19.338c3.449 2.758 8.484 2.202 11.245-1.25 2.76-3.449 2.201-8.484-1.25-11.244-3.369-2.696-53.568-42.854-55.562-44.449-3.449-2.758-8.484-2.201-11.245 1.25-2.76 3.449-2.201 8.484 1.25 11.244l18.868 15.094c-21.928 32.211-24.274 74.217-5.566 108.738l-16.295 10.516c-6.697 4.321-3.593 14.722 4.345 14.722zm166.486-185.486c-3.846-2.176-8.726-.825-10.904 3.018l-7.194 12.699c-32.757-15.369-71.841-12.928-102.708 7.811-3.667 2.464-4.643 7.435-2.179 11.102 2.465 3.669 7.436 4.643 11.102 2.18 26.012-17.476 58.621-19.453 85.874-7.127l-5.673 10.014c-2.178 3.845-.827 8.727 3.017 10.904 3.845 2.176 8.726.827 10.904-3.018l20.778-36.678c2.178-3.846.827-8.727-3.017-10.905zm-34.907 92.621c17.586 0 31.893 14.307 31.893 31.892 0 17.586-14.307 31.893-31.893 31.893-17.585 0-31.892-14.307-31.892-31.893 0-17.585 14.306-31.892 31.892-31.892zm0 16c-8.763 0-15.892 7.129-15.892 15.892 0 8.764 7.129 15.893 15.892 15.893s15.893-7.129 15.893-15.893c-.001-8.763-7.13-15.892-15.893-15.892zm-64.849 1.861c0 6.022-4.9 10.923-10.922 10.923s-10.922-4.9-10.922-10.923 4.9-10.922 10.922-10.922 10.922 4.9 10.922 10.922z"/></svg>