<svg height="512" viewBox="0 0 64 64" width="512" xmlns="http://www.w3.org/2000/svg"><g id="man-virus-mask-protect-covid19"><g fill="#9bc9ff"><path d="m33.06 21.662a2 2 0 0 0 -2.12 0l-6.94 4.338v7.534a10.966 10.966 0 0 0 16 0v-7.534z"/><path d="m45 21h-2v5a10.98 10.98 0 0 1 -.188 2h2.188a2 2 0 0 0 2-2v-3a2 2 0 0 0 -2-2z"/><path d="m19 21h2v5a10.98 10.98 0 0 0 .188 2h-2.188a2 2 0 0 1 -2-2v-3a2 2 0 0 1 2-2z"/><path d="m38 3h-8a4 4 0 0 0 -4 4 2 2 0 0 0 -2-2h-2a4 4 0 0 0 -4 4v12h3v-4a4 4 0 0 1 4-4h14a4 4 0 0 1 4 4v4h3v-10a8 8 0 0 0 -8-8z"/><path d="m56.6 57 .4 4-.919-9.194a12 12 0 0 0 -11.941-10.806h-5.14c-.027 0-.053-.007-.08-.008v.008a6.991 6.991 0 0 1 -13.84 0v-.008c-.027 0-.053.008-.08.008h-5.14a12 12 0 0 0 -11.941 10.806l-.919 9.194.4-4h11.6v4h26v-4z"/></g><path d="m28 18a1 1 0 0 0 -1 1v1a1 1 0 0 0 2 0v-1a1 1 0 0 0 -1-1z" fill="#1e81ce"/><path d="m36 18a1 1 0 0 0 -1 1v1a1 1 0 0 0 2 0v-1a1 1 0 0 0 -1-1z" fill="#1e81ce"/><path d="m57.08 51.71a12.962 12.962 0 0 0 -12.94-11.71h-5.14a1 1 0 0 1 -1-1v-2.62a12.1 12.1 0 0 0 5.61-7.38h1.39a3.009 3.009 0 0 0 3-3v-3a2.986 2.986 0 0 0 -1-2.22v-9.78a9.014 9.014 0 0 0 -9-9h-8a4.989 4.989 0 0 0 -4.33 2.51 2.994 2.994 0 0 0 -1.67-.51h-2a5 5 0 0 0 -5 5v11.78a2.986 2.986 0 0 0 -1 2.22v3a3.009 3.009 0 0 0 3 3h1.39a12.1 12.1 0 0 0 5.61 7.38v2.62a1 1 0 0 1 -1 1h-5.14a12.962 12.962 0 0 0 -12.94 11.71l-.92 9.19a1.036 1.036 0 0 0 .26.77 1 1 0 0 0 .74.33h50a1 1 0 0 0 .74-.33 1.036 1.036 0 0 0 .26-.77zm-15.08-25.71a9.98 9.98 0 0 1 -1 4.33v-4.05l1-1.67zm4-3v3a1 1 0 0 1 -1 1h-1.05c.03-.33.05-.66.05-1v-4h1a1 1 0 0 1 1 1zm-27 4a1 1 0 0 1 -1-1v-3a1 1 0 0 1 1-1h1v4c0 .34.02.67.05 1zm1-10v3h-1v-11a3.009 3.009 0 0 1 3-3h2a1 1 0 0 1 1 1 1 1 0 0 0 2 0 3.009 3.009 0 0 1 3-3h8a7.008 7.008 0 0 1 7 7v9h-1v-3a5 5 0 0 0 -5-5h-14a5 5 0 0 0 -5 5zm3 13.33a9.98 9.98 0 0 1 -1-4.33v-1.39l1 1.67zm-1-9.61v-3.72a3.009 3.009 0 0 1 3-3h14a3.009 3.009 0 0 1 3 3v3.72l-2.33 3.89-6.08-3.8a3.034 3.034 0 0 0 -3.18 0l-6.08 3.8zm3 12.41v-6.58l6.47-4.04a1.011 1.011 0 0 1 1.06 0l6.47 4.04v6.58a9.972 9.972 0 0 1 -14 0zm12.73 8.58a5.972 5.972 0 0 1 -11.46 0 3 3 0 0 0 1.73-2.71v-1.7a12.052 12.052 0 0 0 4 .7 11.8 11.8 0 0 0 4-.7v1.7a3 3 0 0 0 1.73 2.71zm-19.73 18.29h-9.9l.2-2h9.7zm27-8a1 1 0 0 0 -1 1v7h-24v-7a1 1 0 0 0 -2 0v3h-9.49l.4-4.09a10.972 10.972 0 0 1 10.95-9.91h4.41a7.979 7.979 0 0 0 15.46 0h4.41a10.972 10.972 0 0 1 10.95 9.91l.41 4.09h-9.5v-3a1 1 0 0 0 -1-1zm1 8v-2h9.7l.2 2z" fill="#1e81ce"/></g></svg>